<?xml version="1.0" encoding="UTF-8"?>
<svg version="1.1" xmlns="http://www.w3.org/2000/svg" width="512" height="512">
<path d="M0 0 C1.26091461 -0.01058945 1.26091461 -0.01058945 2.54730225 -0.02139282 C37.14495984 -0.24604257 37.14495984 -0.24604257 52.890625 3.203125 C53.86805664 3.40711914 54.84548828 3.61111328 55.85253906 3.82128906 C96.06044281 12.32847412 129.91098321 30.47069216 160.890625 57.203125 C159.76550028 60.57849915 159.41315811 60.77427273 156.48828125 62.4453125 C155.7710791 62.86570801 155.05387695 63.28610352 154.31494141 63.71923828 C153.53554199 64.1676709 152.75614258 64.61610352 151.953125 65.078125 C144.20505298 69.64806281 136.91309431 74.6368387 129.73071289 80.05029297 C128.66904907 80.84137451 128.66904907 80.84137451 127.5859375 81.6484375 C126.96734863 82.11781738 126.34875977 82.58719727 125.71142578 83.07080078 C123.71324565 84.31343412 122.2296809 84.93105341 119.890625 85.203125 C117.60523328 83.80716673 115.61180847 82.40636947 113.515625 80.765625 C76.2929988 52.99597766 29.5702521 42.78583056 -16.109375 49.203125 C-49.33262729 54.47770365 -79.7504673 69.17417488 -105.109375 91.203125 C-105.83382812 91.80640625 -106.55828125 92.4096875 -107.3046875 93.03125 C-112.07156732 97.05500407 -116.1055091 101.43150749 -120.109375 106.203125 C-120.84800781 107.03070313 -121.58664063 107.85828125 -122.34765625 108.7109375 C-151.59721235 142.20564449 -166.75930204 188.12633212 -163.96875 232.43603516 C-161.04184525 271.90767393 -146.11282828 308.26891716 -120.109375 338.203125 C-119.50609375 338.92757813 -118.9028125 339.65203125 -118.28125 340.3984375 C-114.25749593 345.16531732 -109.88099251 349.1992591 -105.109375 353.203125 C-104.28179687 353.94175781 -103.45421875 354.68039062 -102.6015625 355.44140625 C-68.42981373 385.28219522 -22.38320805 399.70944358 22.64453125 396.92578125 C69.80114732 393.50042599 111.40301683 372.3062554 142.890625 337.203125 C173.55423306 301.02998987 188.84741683 253.51552657 185.47705078 206.30639648 C183.72524068 185.77218827 178.58306933 164.3730427 168.77099609 146.12036133 C167.53973062 143.4389615 167.9625802 141.96074385 168.890625 139.203125 C170.2109375 137.640625 170.2109375 137.640625 172.015625 136.203125 C172.73234375 135.61402344 173.4490625 135.02492187 174.1875 134.41796875 C175.07953125 133.68707031 175.9715625 132.95617187 176.890625 132.203125 C178.70489781 130.63534523 180.50810335 129.05531007 182.31176758 127.4753418 C188.70797118 121.87836394 195.18389834 116.42648153 201.890625 111.203125 C205.60147978 112.64484057 206.75163007 114.20482082 208.44140625 117.76171875 C208.88911377 118.69483887 209.33682129 119.62795898 209.7980957 120.58935547 C210.26175537 121.59627441 210.72541504 122.60319336 211.203125 123.640625 C211.6880542 124.68105957 212.1729834 125.72149414 212.67260742 126.79345703 C220.64407726 144.141645 226.05249059 161.49146184 229.890625 180.203125 C230.07141602 181.06615234 230.25220703 181.92917969 230.43847656 182.81835938 C241.42633998 237.91058907 227.81730245 298.73016372 196.890625 345.203125 C193.08032629 350.68193346 189.03333027 355.97273866 184.890625 361.203125 C184.43961426 361.77272949 183.98860352 362.34233398 183.52392578 362.92919922 C172.22383068 377.04489087 159.43657963 389.4779023 144.890625 400.203125 C144.04250244 400.84241943 144.04250244 400.84241943 143.17724609 401.49462891 C134.80899206 407.80124294 126.1324673 413.219621 116.88330078 418.14160156 C115.59370084 418.82858766 114.30791338 419.52279965 113.02685547 420.22558594 C94.33522074 430.46278903 73.76982594 437.16863337 52.890625 441.203125 C52.09881836 441.36538574 51.30701172 441.52764648 50.49121094 441.69482422 C1.53005711 451.38901262 -51.52422085 441.72601399 -95.109375 418.203125 C-96.841875 417.28273438 -96.841875 417.28273438 -98.609375 416.34375 C-124.04963451 402.35160727 -147.60983165 382.41680495 -165.109375 359.203125 C-165.50431152 358.67928223 -165.89924805 358.15543945 -166.30615234 357.61572266 C-176.4866957 344.00594364 -184.86574431 329.56516364 -192.109375 314.203125 C-192.89441406 312.54603516 -192.89441406 312.54603516 -193.6953125 310.85546875 C-204.44757397 286.9899995 -211.16934354 260.11100412 -211.3125 233.875 C-211.31951431 233.01196762 -211.32652863 232.14893524 -211.33375549 231.25975037 C-211.35116251 228.49082157 -211.35760744 225.7221065 -211.359375 222.953125 C-211.36004974 222.00805084 -211.36072449 221.06297668 -211.36141968 220.08926392 C-211.34604244 206.55887913 -210.98438175 193.47041037 -208.109375 180.203125 C-207.94840332 179.38859863 -207.78743164 178.57407227 -207.62158203 177.73486328 C-200.86658039 143.72625269 -186.04078358 111.1206487 -164.109375 84.203125 C-163.67866699 83.67235352 -163.24795898 83.14158203 -162.80419922 82.59472656 C-151.89921249 69.25061811 -139.89601318 56.59612917 -126.109375 46.203125 C-125.58553223 45.80818848 -125.06168945 45.41325195 -124.52197266 45.00634766 C-89.11722707 18.52248285 -44.64479044 0.2506974 0 0 Z " fill="#ffffff" transform="translate(211.109375,33.796875)"/>
<path d="M0 0 C1.11117188 -0.01417969 2.22234375 -0.02835938 3.3671875 -0.04296875 C6.125 0.1875 6.125 0.1875 8.125 2.1875 C8.95646337 7.25942656 8.95646337 7.25942656 8.125 10.1875 C6.6105957 11.53637695 6.6105957 11.53637695 4.61328125 12.67578125 C3.88399414 13.09722412 3.15470703 13.51866699 2.40332031 13.95288086 C-1.14366411 15.87498762 -4.71613362 17.73467857 -8.3125 19.5625 C-42.44649024 37.29492799 -74.36590413 59.56781017 -103.875 84.1875 C-104.46539062 84.67879395 -105.05578125 85.17008789 -105.6640625 85.67626953 C-112.00335207 90.96197201 -118.25157002 96.33807957 -124.35180664 101.8996582 C-125.89709562 103.30080992 -127.45011707 104.69356367 -129.01611328 106.0715332 C-136.16334606 112.3819902 -142.90638307 119.0662005 -149.63500977 125.81713867 C-151.56609547 127.75360549 -153.50249882 129.68463956 -155.43945312 131.61523438 C-161.46323438 137.63543483 -167.39885561 143.65719544 -172.875 150.1875 C-173.84728872 151.30614087 -174.82122379 152.4233531 -175.796875 153.5390625 C-182.24953682 160.98842209 -188.48647002 168.57118679 -194.49072266 176.38671875 C-195.41154482 177.58459958 -196.33569099 178.77993273 -197.26318359 179.97265625 C-225.72510292 216.61601711 -249.98996959 258.25910152 -266.49072266 301.66162109 C-269.21617046 308.56177211 -269.21617046 308.56177211 -272.28515625 311.4765625 C-275.86487234 312.45922966 -277.60214494 311.8798929 -280.875 310.1875 C-282.38671875 308.2109375 -282.38671875 308.2109375 -283.5625 305.5625 C-284.06007813 304.48355469 -284.55765625 303.40460938 -285.0703125 302.29296875 C-285.67350626 300.9251974 -286.27487881 299.55662225 -286.875 298.1875 C-294.05634829 281.98749743 -301.78506644 266.40907209 -310.875 251.1875 C-311.3817627 250.33784668 -311.88852539 249.48819336 -312.41064453 248.61279297 C-321.47967323 233.5430263 -331.62569233 219.36724075 -343.68359375 206.53515625 C-345.64501872 204.43387924 -347.48040892 202.27573532 -349.3125 200.0625 C-355.549059 192.92671621 -363.35978991 187.49528456 -371.0625 182.0625 C-387.8909914 170.16873026 -387.8909914 170.16873026 -389.875 163.1875 C-391.19013606 152.07734015 -389.48003732 142.31982217 -382.5 133.4375 C-374.40419415 124.99299839 -362.20652477 120.35866066 -350.6875 119.8125 C-332.22099347 120.29578323 -318.42434327 131.9207996 -305.875 144.1875 C-304.92753906 145.05955078 -304.92753906 145.05955078 -303.9609375 145.94921875 C-293.36026176 155.92189237 -283.43285578 169.44814424 -276.21875 182.08984375 C-275.7753125 182.78207031 -275.331875 183.47429687 -274.875 184.1875 C-274.215 184.1875 -273.555 184.1875 -272.875 184.1875 C-271.53556736 182.42508863 -270.2815162 180.59774812 -269.0625 178.75 C-259.0339435 163.8450579 -247.63803838 149.9161198 -236 136.25 C-235.55454834 135.72510986 -235.10909668 135.20021973 -234.65014648 134.65942383 C-225.85021348 124.39360685 -216.52278839 114.6702344 -206.94897461 105.13110352 C-205.17508997 103.36262781 -203.40668223 101.58879956 -201.63867188 99.81445312 C-195.88854812 94.06030901 -190.11932728 88.41072102 -183.875 83.1875 C-183.24408447 82.64988037 -182.61316895 82.11226074 -181.96313477 81.55834961 C-133.13339953 40.10581248 -66.06589391 0.38862291 0 0 Z " fill="#ffffff" transform="translate(503.875,58.8125)"/>
</svg>
